<svg width="360" height="160" viewBox="0 0 360 160" fill="none" xmlns="http://www.w3.org/2000/svg" role="img" aria-labelledby="title desc">
  <title id="title">ATP Amateur Tennis Platform</title>
  <desc id="desc">Modern ATP logo with tennis court symbol</desc>
  <rect width="360" height="160" rx="32" fill="#FFFFFF"/>
  <rect x="34" y="34" width="92" height="92" rx="24" fill="#0A1530"/>
  <path d="M56 56H104L96 104H64L56 56Z" fill="#163866"/>
  <path d="M80 56V104" stroke="#A8DFBF" stroke-width="4" stroke-linecap="round"/>
  <path d="M60 80H100" stroke="#A8DFBF" stroke-width="4" stroke-linecap="round"/>
  <path d="M56 56H104L96 104H64L56 56Z" stroke="#E6F4ED" stroke-width="4" stroke-linejoin="round"/>
  <circle cx="104" cy="56" r="12" fill="#25A05A"/>
  <path d="M95.8 64.2C101.3 62 105.8 57.6 108 52" stroke="#E6F4ED" stroke-width="2.5" stroke-linecap="round"/>
  <path d="M150 100L174.4 42H190.7L215 100H197.7L193.5 89H170.9L166.8 100H150ZM175.6 76.5H188.7L182.2 59.2L175.6 76.5Z" fill="#0F1E3D"/>
  <path d="M229.1 100V56.5H212.6V42H262.8V56.5H246.1V100H229.1Z" fill="#0F1E3D"/>
  <path d="M276.3 100V42H302.4C309.3 42 314.8 44 318.8 47.9C322.8 51.8 324.8 56.9 324.8 63.2C324.8 69.5 322.8 74.6 318.8 78.5C314.8 82.3 309.3 84.2 302.4 84.2H293.2V100H276.3ZM293.2 70.9H300.3C302.8 70.9 304.8 70.2 306.1 68.9C307.4 67.6 308.1 65.7 308.1 63.2C308.1 60.8 307.4 59 306.1 57.7C304.8 56.4 302.8 55.7 300.3 55.7H293.2V70.9Z" fill="#0F1E3D"/>
  <path d="M152 116H324" stroke="#25A05A" stroke-width="5" stroke-linecap="round"/>
  <text x="152" y="132" fill="#475569" font-family="Segoe UI, Arial, sans-serif" font-size="13" font-weight="700">AMATEUR TENNIS PLATFORM</text>
</svg>
